<?xml version="1.0" encoding="utf-8"?>
<!-- Generator: Adobe Illustrator 23.1.1, SVG Export Plug-In . SVG Version: 6.00 Build 0)  -->
<svg version="1.1" id="Layer_1" xmlns="http://www.w3.org/2000/svg" xmlns:xlink="http://www.w3.org/1999/xlink" x="0px" y="0px"
	 viewBox="0 0 24 24" style="enable-background:new 0 0 24 24;" xml:space="preserve">
<title  id="starIconTitle">Star</title>
<desc  id="starIconDesc">Icon of a five-pointed star</desc>
<path d="M22.4,9.5c-0.1-0.4-0.4-0.6-0.8-0.7l-6-0.9l-2.7-5.4c-0.3-0.7-1.5-0.7-1.8,0L8.4,8l-6,0.9C2.1,8.9,1.8,9.2,1.6,9.5
	c-0.1,0.4,0,0.8,0.3,1l4.3,4.2l-1,6c-0.1,0.4,0.1,0.8,0.4,1c0.2,0.1,0.4,0.2,0.6,0.2c0.2,0,0.3,0,0.5-0.1L12,19l5.4,2.8
	c0.3,0.2,0.7,0.1,1.1-0.1c0.3-0.2,0.5-0.6,0.4-1l-1-6l4.3-4.2C22.4,10.3,22.5,9.9,22.4,9.5z"/>
</svg>
